<svg xmlns="http://www.w3.org/2000/svg" viewBox="0 0 278.67 360.44"><path d="M238.08 338.48v21.91h7.02v-14.58h25.58v14.58h7.02v-21.87l-39.62-.04M244.32 331.39h27a10 10 0 0 0 7.33-7.26H237a10 10 0 0 0 7.33 7.26M216.8 360.41a10 10 0 0 0 6.17-7.14h-31.51v-29.12h-7.07v36.24h32.41M131.87 331.3h25c3.76-1.1 6.92-4 7.69-7.14h-39.68v21.42h32.44v7.51h-25.45a14.17 14.17 0 0 0-9.05 7.33h41.47v-21.96h-32.42v-7.16M70.27 331.37h27a10 10 0 0 0 7.34-7.27H62.94a10 10 0 0 0 7.33 7.27M70.27 345.69h27a10 10 0 0 0 7.34-7.26H62.94a10 10 0 0 0 7.33 7.26M70.27 360.4h27a10 10 0 0 0 7.34-7.26H62.94a10 10 0 0 0 7.33 7.26M0 324.19a10.06 10.06 0 0 0 7.32 7.21h11.37l.58.23v28.69h7.1v-28.69l.64-.23h11.38a10.21 10.21 0 0 0 7.29-7.21v-.07H0v.07M139.35 252.5 174.83 53c33.81 0 44.48 3.71 46 18.85 0 0 22.68-8.46 34.12-25.64-44.64-20.69-89.5-21.62-89.5-21.62l-26.16 31.86h.06l-26.18-31.89s-44.86.94-89.5 21.63C35.11 63.36 57.8 71.82 57.8 71.82 59.35 56.69 70 53 103.59 53l35.76 199.5" style="fill:#e82127"/><path d="M139.34 15.36A292.18 292.18 0 0 1 259 39.37c5.66-10.17 7.11-14.66 7.11-14.66A347.18 347.18 0 0 0 139.33 0 347.09 347.09 0 0 0 12.54 24.71a124.61 124.61 0 0 0 7.1 14.66 292.23 292.23 0 0 1 119.69-24" style="fill:#e82127"/></svg>